<!DOCTYPE svg PUBLIC "-//W3C//DTD SVG 20010904//EN" "http://www.w3.org/TR/2001/REC-SVG-20010904/DTD/svg10.dtd">
<svg version="1.0" xmlns="http://www.w3.org/2000/svg" width="1000px" height="1000px" viewBox="0 0 10000 10000" preserveAspectRatio="xMidYMid meet">
<g id="layer101" fill="#303030" stroke="none">
 <path d="M4301 8323 c-28 -27 -188 -194 -357 -373 l-306 -325 9 -45 c15 -82 9 -279 -10 -350 -20 -74 -65 -176 -73 -167 -3 3 4 49 16 104 27 120 29 251 6 382 l-17 93 135 132 c118 114 140 141 171 206 54 114 49 227 -13 283 -26 23 -54 16 -78 -21 -41 -64 -171 -183 -329 -302 -234 -175 -293 -241 -331 -369 -7 -25 -27 -123 -44 -218 -17 -94 -35 -186 -41 -203 -22 -61 -111 -205 -147 -238 -121 -109 -383 -357 -412 -389 -19 -21 -70 -76 -113 -122 -140 -150 -382 -445 -473 -577 -27 -39 -90 -127 -140 -195 -150 -205 -239 -352 -345 -568 -289 -593 -387 -1186 -293 -1771 110 -676 557 -1250 1174 -1503 239 -99 525 -157 768 -157 107 0 333 26 442 51 251 58 508 177 704 327 93 71 250 227 325 321 249 313 396 633 459 996 10 56 11 54 32 -70 30 -166 110 -395 190 -541 225 -410 512 -704 852 -875 227 -114 401 -165 662 -194 173 -20 281 -18 456 4 239 31 402 79 608 177 597 284 986 818 1099 1509 22 137 25 612 5 740 -64 397 -154 679 -323 1017 -100 201 -197 358 -344 558 -50 69 -125 172 -167 230 -188 261 -539 652 -798 888 -63 58 -133 122 -156 143 -45 41 -123 169 -147 240 -9 26 -23 86 -32 135 -8 49 -22 126 -30 172 -20 111 -48 186 -91 250 -42 59 -76 90 -259 227 -174 131 -246 195 -311 277 -59 73 -79 81 -111 46 -63 -71 -54 -210 23 -327 20 -31 92 -110 160 -176 l124 -120 -16 -55 c-25 -86 -23 -332 3 -432 11 -43 18 -80 15 -83 -11 -10 -43 58 -67 143 -28 93 -35 215 -21 349 l8 72 -244 258 c-133 142 -292 309 -353 371 l-110 112 -55 0 c-61 0 -72 -5 -89 -37 -17 -33 -13 -74 12 -114 12 -20 128 -152 257 -293 129 -142 235 -263 235 -269 0 -45 -51 2 -315 288 -156 168 -295 312 -311 320 -55 29 -108 15 -134 -35 -20 -38 -19 -69 3 -101 9 -15 105 -118 212 -230 107 -112 234 -245 283 -296 48 -50 87 -96 87 -101 0 -5 -6 -15 -14 -21 -11 -10 -59 37 -256 246 -287 305 -305 323 -339 323 -72 0 -112 -63 -90 -142 10 -41 49 -84 335 -378 154 -159 193 -203 188 -212 -16 -25 -38 -7 -254 205 -275 270 -282 275 -335 222 -30 -29 -33 -87 -7 -127 9 -15 89 -103 177 -195 88 -93 199 -213 246 -268 95 -109 251 -263 314 -310 321 -238 818 -701 1074 -1000 106 -124 251 -309 251 -320 0 -9 52 -84 80 -115 27 -30 80 -106 80 -114 0 -4 31 -60 69 -126 38 -66 73 -130 76 -143 4 -12 15 -35 25 -52 16 -25 90 -227 107 -290 3 -11 11 -27 18 -35 7 -8 15 -28 18 -45 3 -16 13 -57 21 -90 104 -391 25 -813 -204 -1098 -225 -281 -538 -427 -911 -427 -224 0 -472 69 -675 188 -241 140 -492 394 -732 740 -29 42 -58 87 -62 100 -12 28 -56 30 -65 2 -9 -29 -143 -217 -248 -348 -117 -146 -314 -337 -432 -421 -256 -180 -549 -270 -844 -258 -205 8 -332 41 -503 130 -308 159 -507 435 -584 807 -23 114 -23 352 0 475 20 101 58 242 75 271 6 10 26 62 46 114 19 52 49 123 65 158 17 34 30 69 30 77 0 8 34 74 77 147 85 149 102 175 172 268 27 36 50 71 50 78 1 7 53 78 116 157 305 381 671 741 1095 1075 193 151 286 239 423 395 77 88 190 212 251 275 196 203 196 203 196 258 0 38 -5 53 -23 70 -47 44 -69 33 -211 -105 -72 -71 -133 -130 -136 -133 -3 -3 -51 -49 -107 -102 -93 -90 -139 -120 -131 -84 2 8 115 131 252 274 137 143 255 271 262 284 7 12 13 43 14 66 0 36 -5 49 -31 73 -46 43 -79 39 -138 -16 -27 -25 -149 -153 -272 -285 -123 -132 -231 -240 -240 -240 -30 0 -27 24 9 65 20 22 117 125 216 230 383 402 346 359 346 405 0 33 -6 48 -29 71 -38 37 -76 38 -127 2 -41 -29 -58 -46 -364 -378 -96 -105 -186 -200 -199 -213 -26 -24 -46 -25 -46 0 0 8 108 133 240 277 132 145 245 273 252 285 17 30 16 97 -3 124 -13 18 -25 22 -74 22 -56 0 -61 -2 -109 -47z"/>
 <path d="M4960 7238 c-359 -214 -822 -582 -1139 -907 -233 -238 -435 -472 -576 -664 -28 -38 -74 -96 -103 -130 -55 -65 -143 -202 -162 -252 -6 -17 -43 -84 -81 -150 -38 -67 -69 -126 -69 -132 0 -7 -17 -65 -39 -130 -52 -159 -59 -194 -72 -335 -10 -121 0 -321 21 -378 4 -14 16 -52 26 -85 21 -68 73 -181 107 -228 43 -60 151 -168 207 -206 199 -136 471 -205 714 -181 337 33 638 196 881 475 28 32 55 63 61 70 36 37 169 245 216 335 30 58 60 105 68 105 8 0 37 -46 67 -104 101 -199 236 -380 388 -522 193 -178 372 -277 614 -336 92 -23 126 -26 256 -25 131 1 164 4 265 30 317 81 529 256 643 532 57 138 84 343 67 503 -14 129 -36 243 -61 314 -10 31 -19 64 -19 74 0 26 -79 189 -150 309 -21 36 -41 76 -45 89 -7 24 -21 45 -145 214 -449 615 -901 1066 -1512 1510 -51 37 -116 83 -145 102 -29 19 -82 55 -119 80 -76 51 -109 55 -164 23z"/>
 </g>
<g id="layer102" fill="#ff2931" stroke="none">
 <path d="M4960 7238 c-359 -214 -822 -582 -1139 -907 -233 -238 -435 -472 -576 -664 -28 -38 -74 -96 -103 -130 -55 -65 -143 -202 -162 -252 -6 -17 -43 -84 -81 -150 -38 -67 -69 -126 -69 -132 0 -7 -17 -65 -39 -130 -52 -159 -59 -194 -72 -335 -10 -121 0 -321 21 -378 4 -14 16 -52 26 -85 21 -68 73 -181 107 -228 43 -60 151 -168 207 -206 199 -136 471 -205 714 -181 337 33 638 196 881 475 28 32 55 63 61 70 36 37 169 245 216 335 30 58 60 105 68 105 8 0 37 -46 67 -104 101 -199 236 -380 388 -522 193 -178 372 -277 614 -336 92 -23 126 -26 256 -25 131 1 164 4 265 30 317 81 529 256 643 532 57 138 84 343 67 503 -14 129 -36 243 -61 314 -10 31 -19 64 -19 74 0 26 -79 189 -150 309 -21 36 -41 76 -45 89 -7 24 -21 45 -145 214 -449 615 -901 1066 -1512 1510 -51 37 -116 83 -145 102 -29 19 -82 55 -119 80 -76 51 -109 55 -164 23z m-86 -789 c122 -35 132 -34 277 7 130 38 229 32 331 -19 92 -45 133 -85 172 -167 25 -53 30 -78 30 -135 0 -38 -6 -88 -13 -110 -19 -55 -101 -137 -190 -192 -103 -63 -104 -64 -182 -179 -40 -60 -81 -110 -101 -122 -61 -36 -139 -56 -223 -56 -143 0 -203 34 -267 152 -51 92 -68 109 -166 163 -146 80 -230 195 -240 328 -9 130 53 234 179 301 133 71 222 77 393 29z m817 -625 c123 -63 229 -248 229 -398 -1 -131 -78 -216 -197 -216 -104 0 -200 81 -272 229 -41 85 -45 102 -45 166 0 57 5 82 28 129 25 50 35 61 80 82 60 28 133 31 177 8z m-1196 -28 c52 -24 109 -80 126 -123 27 -71 -5 -222 -71 -337 -105 -185 -307 -232 -421 -97 -63 73 -76 174 -38 297 70 228 239 337 404 260z m857 -352 c71 -37 164 -163 201 -273 25 -73 34 -205 17 -257 -31 -97 -104 -148 -210 -148 -82 0 -129 23 -197 98 -88 96 -121 197 -109 334 7 85 29 142 77 197 64 72 142 90 221 49z m-428 -14 c86 -59 120 -157 114 -329 -5 -137 -27 -204 -89 -274 -72 -82 -169 -98 -276 -43 -111 56 -158 149 -151 296 4 80 8 98 46 173 45 91 99 154 159 187 53 29 146 24 197 -10z"/>
 </g>

</svg>